<svg width="94" height="95" viewBox="0 0 94 95" fill="none" xmlns="http://www.w3.org/2000/svg">
<g clip-path="url(#clip0_4_26)">
<path d="M94 83.4237L71.8317 61.2592C75.9324 55.067 78.3333 47.6488 78.3333 39.6667C78.3333 18.0349 60.7984 0.5 39.1667 0.5C17.5349 0.5 0 18.0349 0 39.6667C0 61.2984 17.5349 78.8333 39.1667 78.8333C47.1488 78.8333 54.567 76.4324 60.7553 72.3317L82.9237 94.5L94 83.4237ZM7.83333 39.6667C7.83333 22.3903 21.8903 8.33333 39.1667 8.33333C56.4431 8.33333 70.5 22.3903 70.5 39.6667C70.5 56.9431 56.4431 71 39.1667 71C21.8903 71 7.83333 56.9431 7.83333 39.6667ZM58.75 43.6068C58.75 44.5429 57.9823 45.2988 57.0306 45.2988H53.1335C52.2288 45.2988 51.2574 45.8393 51.0498 47.1514C50.8814 48.205 51.4885 49.0471 52.2953 49.4074L56.2473 51.166C57.1128 51.5498 57.4928 52.5525 57.1089 53.4063C56.7094 54.2563 55.695 54.6362 54.8333 54.2523L50.6503 52.3919C50.1059 52.1452 49.5067 52.2783 49.0837 52.9833C47.3368 55.8621 43.9528 58.7173 39.1667 59.25C34.2865 58.7056 30.8633 55.7485 29.1517 52.8149C28.8032 52.2196 28.1843 52.1726 27.6869 52.3958L23.5039 54.2563C22.6383 54.6401 21.6278 54.2602 21.2283 53.4103C20.8406 52.5564 21.2244 51.5538 22.09 51.1699L26.0419 49.4113C26.8958 49.0314 27.448 48.2128 27.2678 47.0261C27.0877 45.9098 26.132 45.3028 25.2038 45.3028H21.3028C20.351 45.2988 19.5833 44.5429 19.5833 43.6068C19.5833 42.6707 20.351 41.9148 21.3028 41.9148H25.2233C26.1203 41.9148 27.0642 41.3391 27.2365 40.1053C27.3697 39.1575 26.79 38.3389 25.9753 38.0256L22.3368 36.6078C21.4516 36.2631 21.0168 35.2839 21.3654 34.4144C21.7179 33.5449 22.7167 33.1141 23.5979 33.4588L27.3423 34.9118C27.824 35.0959 28.5094 35.0372 28.8776 34.1951C29.1753 33.5332 29.5043 32.9104 29.8568 32.3268C32.6493 33.9562 35.72 34.7708 39.1667 34.7708C42.5624 34.7708 45.6722 33.9405 48.4648 32.3229C48.8369 32.9261 49.1816 33.5684 49.4793 34.2578C49.7965 34.9745 50.4545 35.1233 50.9911 34.9157L54.7354 33.4627C55.6206 33.118 56.6154 33.5449 56.9679 34.4183C57.3165 35.2878 56.8818 36.267 55.9966 36.6117L52.358 38.0256C51.5747 38.3272 50.9558 39.0948 51.1047 40.2033C51.2535 41.2764 52.17 41.9188 53.11 41.9188H57.0306C57.9823 41.9148 58.75 42.6707 58.75 43.6068ZM32.9509 24.6228C33.4758 24.7403 33.9301 25.0614 34.2082 25.5158C35.2187 27.196 33.9027 28.6334 32.6768 30.1335C34.6508 31.0539 36.7736 31.5082 39.1667 31.5082C41.5245 31.5082 43.663 31.0422 45.6448 30.1257C44.4385 28.6491 43.1225 27.1764 44.1213 25.5158C44.3993 25.0614 44.8576 24.7403 45.3785 24.6228C46.4164 24.3956 47.1997 23.483 47.1997 22.3785C47.2037 21.1134 46.1618 20.0833 44.8693 20.0833C43.3301 20.0833 42.2177 21.5286 42.6172 22.9817C42.7661 23.5339 42.6878 24.1175 42.394 24.6071C41.7321 25.6998 40.6041 26.3578 39.1667 26.3657C37.7097 26.3578 36.5973 25.6881 35.9393 24.6071C35.6495 24.1175 35.5673 23.5339 35.7161 22.9817C36.1156 21.5247 35.0032 20.0833 33.464 20.0833C32.1715 20.0833 31.1297 21.1134 31.1297 22.3785C31.1297 23.483 31.913 24.3956 32.9509 24.6228V24.6228Z" fill="black"/>
</g>
<defs>
<clipPath id="clip0_4_26">
<rect width="94" height="94" fill="white" transform="translate(0 0.5)"/>
</clipPath>
</defs>
</svg>
